<?xml version="1.0" encoding="utf-8"?>
<!-- Generator: Adobe Illustrator 27.1.1, SVG Export Plug-In . SVG Version: 6.00 Build 0)  -->
<svg version="1.1" id="Layer_1" xmlns="http://www.w3.org/2000/svg" xmlns:xlink="http://www.w3.org/1999/xlink" x="0px" y="0px"
	 viewBox="0 0 127.3 136.4" style="enable-background:new 0 0 127.3 136.4;" xml:space="preserve">
<style type="text/css">
	.st0{fill-rule:evenodd;clip-rule:evenodd;fill:#010101;}
</style>
<path class="st0" d="M59.1,28.2c-23,0-41.7,18.7-41.7,41.7s18.7,41.7,41.7,41.7c23,0,41.7-18.7,41.7-41.7
	C100.8,46.9,82.1,28.2,59.1,28.2z M25.8,69.9c0-18.4,14.9-33.3,33.3-33.3c2.2,0,4.3,0.2,6.3,0.6c-8.8,5.5-14.7,15.3-14.7,26.5
	c0,17,13.5,30.8,30.4,31.2c-5.9,5.2-13.6,8.3-22.1,8.3C40.7,103.2,25.8,88.3,25.8,69.9L25.8,69.9z"/>
</svg>
