<svg xmlns="http://www.w3.org/2000/svg" viewBox="0 0 100 100" fill="black" fill-rule="nonzero">
  <path d="m89.98 58.301c-5.9727-2.5-8.8906 0.070313-8.9609 2.8477-0.070312 2.7773 1.25 1.668 1.25 1.668 1.3203-1.7383 5.625-2.3633 7.1523 1.457 1.5273 3.8203-1.3906 8.75-9.375 7.3633-7.9883-1.3906-10.418-11.461-10.418-11.461 1.875 0.27734 6.7383 0.34766 9.8633-3.1953s1.457-9.7227 1.9453-14.656c0.48438-4.9297 5-5.0703 6.25-3.332 1.25 1.7383 2.082 2.918 2.8477 1.875 0.76562-1.043 0.86719-6.4258-4.9648-6.8398-5.8359-0.41797-9.375 3.957-9.375 11.25 0 7.293-4.793 10.211-8.3359 6.5625-1.2656-1.3008-1.8672-2.8438-2.1133-4.2891-0.39453-2.2812 0.14844-4.6172 1.1758-6.6914 6.2695-12.648 5.1797-22.289-2.082-29.652-5.0898-5.1602-11.289-5.6602-14.84-5.6445-3.5352 0.074219-9.75 0.48047-14.84 5.6445-7.2617 7.3633-8.3516 17.004-2.082 29.652 1.0273 2.0742 1.5703 4.4102 1.1758 6.6914-0.25 1.4453-0.85156 2.9844-2.1133 4.2891-3.543 3.6445-8.3359 0.73047-8.3359-6.5625 0-7.293-3.543-11.668-9.375-11.25-5.8359 0.41797-5.7305 5.8008-4.9648 6.8398 0.76562 1.043 1.5977-0.14063 2.8477-1.875 1.25-1.7344 5.7656-1.5977 6.25 3.332 0.48438 4.9297-1.1797 11.113 1.9453 14.656s7.9883 3.4727 9.8633 3.1953c0 0-2.4297 10.07-10.418 11.461s-10.902-3.543-9.375-7.3633c1.5273-3.8203 5.8359-3.1953 7.1523-1.457 0 0 1.3203 1.1094 1.25-1.668-0.070313-2.7773-2.9883-5.3477-8.9609-2.8477-5.9727 2.5-7.9883 12.641 1.7383 18.336 9.7227 5.6953 21.254-3.6133 24.934-12.156 0 0 1.4922-1.1992 0.50391 2.9688-0.98828 4.168 0.79688 12.848 1.4219 15.906 0.625 3.0547-2.707 6.5273-6.875 4.9297-4.168-1.5977-3.5938-5.1406-2.8047-6.668 0 0-0.59766-1.25-3.168 0-2.5703 1.25-3.6133 8.543 4.9297 11.945s14.379-3.75 13.891-12.016c-0.48438-8.2656-0.55469-13.059 1.9453-15.418 1.0391-0.98047 2.2734-1.3594 3.4648-1.4727 1.1914 0.11719 2.4297 0.49219 3.4648 1.4727 2.5 2.3633 2.4297 7.1523 1.9453 15.418s5.3477 15.418 13.891 12.016 7.5-10.695 4.9297-11.945c-2.5703-1.25-3.168 0-3.168 0 0.78906 1.5273 1.3633 5.0703-2.8047 6.668-4.168 1.5977-7.5-1.875-6.875-4.9297 0.625-3.0547 2.4141-11.738 1.4219-15.906-0.98828-4.168 0.50391-2.9688 0.50391-2.9688 3.6797 8.543 15.211 17.852 24.934 12.156 9.7227-5.6953 7.7109-15.836 1.7344-18.336zm-48.68-18.652c-1.957 0-3.543-1.5859-3.543-3.543s1.5859-3.543 3.543-3.543 3.543 1.5859 3.543 3.543-1.5859 3.543-3.543 3.543zm17.398 0c-1.957 0-3.543-1.5859-3.543-3.543s1.5859-3.543 3.543-3.543 3.543 1.5859 3.543 3.543-1.5859 3.543-3.543 3.543z"/>
</svg>
