<?xml version="1.0" encoding="UTF-8" standalone="no"?>
<!-- Generator: Adobe Illustrator 25.2.0, SVG Export Plug-In . SVG Version: 6.00 Build 0)  -->

<svg
   version="1.1"
   id="Layer_1"
   x="0px"
   y="0px"
   viewBox="0 0 11990.25 15438.848"
   xml:space="preserve"
   width="11990.25"
   height="15438.848"
   xmlns="http://www.w3.org/2000/svg"
   xmlns:svg="http://www.w3.org/2000/svg"><defs
   id="defs2" />
<g
   id="g2"
   transform="translate(0,-36.599273)">
	<path
   id="path1"
   d="M 49,0.30078125 C 43,0.50078125 36.999219,4.8 32.199219,12.5 28.799219,17.9 26.2,24.7 25.5,30 c -6.9,2.1 -11.700781,3.599219 -11.800781,3.699219 -3.5,1.1 -3.6,1.2 -4.0000002,4.5 C 9.0992187,40.699219 0,111.19922 0,111.19922 l 75.599609,13.10156 v -12.35156 h 2.5 v 11.95117 L 109.5,116.09961 c 0,0 -13.499609,-91.300391 -13.599609,-91.900391 -0.1,-0.6 -0.59961,-1 -1.09961,-1 C 94.300781,23.199219 85.5,23 85.5,23 c 0,0 -5.400391,-5.199219 -7.400391,-7.199219 v 10.595703 h -2.5 V 14.599609 c -0.4,0.1 -0.70039,0.101172 -0.90039,0.201172 0,0 -1.399219,0.39961 -3.699219,1.09961 C 70.6,14.600391 69.999219,13.1 69.199219,11.5 c -2.6,-5 -6.49961,-7.6992187 -11.09961,-7.6992188 -0.3,0 -0.6,-3.906e-4 -1,0.099609 -0.1,-0.2 -0.30039,-0.3 -0.40039,-0.5 -2,-2.2 -4.599219,-3.19960935 -7.699219,-3.09960895 z m 0.09961,3.99999995 c 1.4,0 2.59961,0.2984375 3.59961,0.8984376 C 51.099219,5.9992187 49.5,7.3007813 48,8.8007812 44.2,12.900781 41.299609,19.300391 40.099609,25.400391 c -3.6,1.1 -7.2,2.199218 -10.5,3.199218 2.1,-9.5 10.2,-23.9988277 19.500001,-24.2988278 z m 10.300782,3.7988282 c 4.6,0.9 6.798828,5.9996096 7.798828,9.0996096 -1.8,0.5 -3.8,1.100781 -6,1.800781 0,-3 -0.398828,-7.300391 -1.798828,-10.9003906 z M 55.19922,8.4003906 c 1.7,3.6000004 2.1,8.4988284 2,11.7988284 -4,1.2 -8.399219,2.60039 -12.699219,3.90039 1.2,-4.7 3.600391,-9.4 6.400391,-12.5 1.1,-1.1 2.598828,-2.3992184 4.298828,-3.1992184 z M 75.59961,33.513672 h 2.5 v 11.357422 h -2.5 z M 48.199219,39 C 54.699219,38.6 58,40.199219 58,40.199219 l -3.800781,14.40039 c 0,0 -4.298438,-1.999609 -9.398438,-1.599609 -7.4,0.5 -7.50039,5.200781 -7.40039,6.300781 0.4,6.4 17.298828,7.798438 18.298828,22.898438 0.7,11.9 -6.298438,20.001561 -16.398438,20.601561 -12.2,0.8 -18.90039,-6.400389 -18.90039,-6.400389 l 2.599609,-11 c 0,0 6.699609,5.099218 12.099609,4.699218 3.5,-0.2 4.801172,-3.099609 4.701172,-5.099609 -0.5,-8.4 -14.301172,-7.899219 -15.201172,-21.699219 -0.8,-11.5 6.79961,-23.200781 23.59961,-24.300781 z m 27.40039,12.986328 h 2.5 V 63.5 h -2.5 z m 0,18.628906 h 2.5 v 13.191407 h -2.5 z m 0,20.308594 h 2.5 v 13.910152 h -2.5 z" />
	
</g>
</svg>
