<svg xmlns="http://www.w3.org/2000/svg" viewBox="0 0 100 100" fill="black" fill-rule="nonzero">
  <path d="m50 9.375c-10.773 0-21.109 4.2812-28.727 11.898-7.6172 7.6172-11.898 17.953-11.898 28.727s4.2812 21.109 11.898 28.727c7.6172 7.6172 17.953 11.898 28.727 11.898s21.109-4.2812 28.727-11.898c7.6172-7.6172 11.898-17.953 11.898-28.727-0.011719-10.77-4.293-21.098-11.91-28.715-7.6172-7.6172-17.945-11.898-28.715-11.91zm10.418 25c2.1055 0 4.0039 1.2695 4.8125 3.2148 0.80469 1.9453 0.35938 4.1875-1.1328 5.6758-1.4883 1.4883-3.7266 1.9375-5.6758 1.1289-1.9453-0.80469-3.2148-2.7031-3.2148-4.8125 0-2.875 2.332-5.207 5.2109-5.207zm-20.832 0h-0.003907c2.1094 0 4.0078 1.2695 4.8125 3.2148 0.80859 1.9453 0.35938 4.1875-1.1289 5.6758s-3.7305 1.9375-5.6758 1.1289c-1.9453-0.80469-3.2148-2.7031-3.2148-4.8125 0-2.875 2.332-5.207 5.207-5.207zm32.457 27.793c-4.918 7.3633-13.188 11.789-22.043 11.789s-17.125-4.4258-22.043-11.789c-0.82422-1.4102-0.44531-3.2109 0.875-4.168 1.4062-0.84766 3.2227-0.46484 4.168 0.875 3.7578 5.6211 10.074 8.9922 16.832 8.9922 6.7617 0 13.078-3.3711 16.836-8.9922 0.94141-1.3398 2.7617-1.7227 4.1641-0.875 1.4414 0.85156 1.9727 2.6758 1.2109 4.168z"/>
</svg>
